# xmcd
#
# Track frame offsets: 
#        150
#        13566
#        34828
#        60240
#        92832
#        112809
#        128785
#        143015
#        165558
#        178519
#        195880
#        210066
#        227528
#
# Disc length: 3204 seconds
#
# Revision: 0
# Processed by: cddbd v1.5.2PL0 Copyright (c) Steve Scherf et al.
# Submitted via: ExactAudioCopy v0.95b3
#
DISCID=900c820d
DTITLE=George Harrison  - All Things Must Pass (1970) [VINYL] (Toshiba
DTITLE=Red Vinyl, 16-bit audio) - Disc 1 
DYEAR=1900
DGENRE=
TTITLE0=I'd Have You Anytime
TTITLE1=My Sweet Lord
TTITLE2=Wah Wah
TTITLE3=Isn't It A Pity
TTITLE4=What Is Life
TTITLE5=If Not For You
TTITLE6=Behind That Locked Door
TTITLE7=Let It Down
TTITLE8=Run Of The Mill
TTITLE9=Beware Of Darkness
TTITLE10=Apple Scruffs
TTITLE11=Ballad Of Sir Frankie Crisp (Let It Roll)
TTITLE12=Awaiting On You All
EXTD=
EXTT0=
EXTT1=
EXTT2=
EXTT3=
EXTT4=
EXTT5=
EXTT6=
EXTT7=
EXTT8=
EXTT9=
EXTT10=
EXTT11=
EXTT12=
PLAYORDER=
